<?xml version="1.0" encoding="UTF-8" standalone="no"?>
<!DOCTYPE svg PUBLIC "-//W3C//DTD SVG 1.1//EN" "http://www.w3.org/Graphics/SVG/1.1/DTD/svg11.dtd">
<svg width="100%" height="100%" viewBox="0 0 1200 6" version="1.1" xmlns="http://www.w3.org/2000/svg" xmlns:xlink="http://www.w3.org/1999/xlink" xml:space="preserve" xmlns:serif="http://www.serif.com/" style="fill-rule:evenodd;clip-rule:evenodd;stroke-linecap:round;stroke-linejoin:round;stroke-miterlimit:1.5;">
    <path d="M3,0C4.656,0 6,1.344 6,3C6,4.656 4.656,6 3,6C1.344,6 0,4.656 0,3C0,1.344 1.344,0 3,0ZM3,1.776C2.31,1.776 1.75,2.337 1.75,3.026C1.75,3.716 2.31,4.276 3,4.276C3.69,4.276 4.25,3.716 4.25,3.026C4.25,2.337 3.69,1.776 3,1.776Z"/>
    <g transform="matrix(191.906,0,0,1,-742.418,1)">
        <path d="M3.91,2L10.142,2" style="fill:none;stroke:black;stroke-width:1.5px;"/>
    </g>
</svg>
