<?xml version="1.0" encoding="UTF-8" standalone="no"?>
<!DOCTYPE svg PUBLIC "-//W3C//DTD SVG 1.1//EN" "http://www.w3.org/Graphics/SVG/1.1/DTD/svg11.dtd">
<svg width="100%" height="100%" viewBox="0 0 360 360" version="1.1" xmlns="http://www.w3.org/2000/svg" xmlns:xlink="http://www.w3.org/1999/xlink" xml:space="preserve" xmlns:serif="http://www.serif.com/" style="fill-rule:evenodd;clip-rule:evenodd;stroke-linecap:square;stroke-linejoin:round;stroke-miterlimit:1.5;">
    <g id="原稿プレビューアイコンライト">
        <g transform="matrix(1.07054,0,0,1.08791,-12.6889,-7.55861)">
            <g transform="matrix(1.11092,0,0,1.11092,13.0535,-29.3798)">
                <path d="M60.887,134.969L60.887,45.216L227.343,45.216L276.876,90.856L276.876,322.738L60.887,322.738L60.887,284.441" style="fill:none;stroke:black;stroke-width:15.01px;"/>
            </g>
            <g transform="matrix(1,0,0,1,-5.53875,5.43436)">
                <path d="M320.641,71.554L265.614,71.554L265.614,20.852L320.641,71.554Z"/>
            </g>
            <g transform="matrix(1.8897,0,0,1.8897,-388.637,-465.387)">
                <path d="M313.437,315.36L319.66,315.36L319.66,319.223C317.673,317.877 315.599,316.582 313.437,315.36ZM334.62,331.603L334.62,315.36L354.005,315.36L354.005,335.17L338.066,335.17C336.978,333.996 335.829,332.802 334.62,331.603ZM348.782,348.55L354.005,348.55L354.005,368.361L342.018,368.361C348.773,360.295 352.248,354.01 352.248,354.01C352.248,354.01 351.08,351.897 348.782,348.55ZM319.66,388.797L319.66,401.552L300.275,401.552L300.275,398.672C307.452,396.144 313.922,392.683 319.66,388.797ZM285,282.169L285,301.98L265.614,301.98L265.614,282.169L285,282.169ZM319.345,282.169L319.345,301.98L299.959,301.98L299.959,282.169L319.345,282.169ZM353.69,282.169L353.69,301.98L334.304,301.98L334.304,282.169L353.69,282.169ZM354.005,381.741L354.005,401.552L334.62,401.552L334.62,381.741L354.005,381.741Z"/>
            </g>
        </g>
        <g transform="matrix(1.07054,0,0,1.08791,-12.6889,-51.075)">
            <g transform="matrix(0.915046,0,0,1,11.1809,0)">
                <path d="M247.215,243.586C247.215,243.586 206.559,303.745 131.612,303.745C56.665,303.745 16.008,243.586 16.008,243.586C16.008,243.586 56.665,183.428 131.612,183.428C206.559,183.428 247.215,243.586 247.215,243.586Z" style="fill:white;stroke:black;stroke-width:17.39px;"/>
            </g>
            <g transform="matrix(0.715567,0,0,0.715567,37.2241,69.2839)">
                <ellipse cx="130.871" cy="243.586" rx="62.801" ry="60.163" style="fill:white;stroke:black;stroke-width:23.31px;"/>
            </g>
        </g>
    </g>
</svg>
