<?xml version="1.0" encoding="UTF-8" standalone="no"?>
<!DOCTYPE svg PUBLIC "-//W3C//DTD SVG 1.1//EN" "http://www.w3.org/Graphics/SVG/1.1/DTD/svg11.dtd">
<svg width="100%" height="100%" viewBox="0 0 360 360" version="1.1" xmlns="http://www.w3.org/2000/svg" xmlns:xlink="http://www.w3.org/1999/xlink" xml:space="preserve" xmlns:serif="http://www.serif.com/" style="fill-rule:evenodd;clip-rule:evenodd;stroke-linecap:round;stroke-linejoin:round;stroke-miterlimit:1.5;">
    <g id="ファイル">
        <g transform="matrix(1,0,0,1,0,-40)">
            <path d="M312.083,236.398L312.083,154.353L231.676,154.353L231.676,78.535L43.405,78.535L43.405,349.954L180,349.954" style="fill:none;stroke:black;stroke-width:20px;"/>
        </g>
        <g transform="matrix(1,0,0,1,0,-40)">
            <path d="M231.676,78.535L312.083,154.353" style="fill:none;stroke:black;stroke-width:20px;"/>
        </g>
        <g transform="matrix(1,0,0,1,0,-40)">
            <path d="M260.263,154.353L260.263,236.398" style="fill:none;stroke:black;stroke-width:20px;"/>
        </g>
        <g transform="matrix(1,0,0,1,6.76801,-40)">
            <path d="M198.183,127.328L198.183,286.398" style="fill:none;stroke:black;stroke-width:20px;"/>
        </g>
        <g transform="matrix(1.20872,0,0,1.20872,-5.42851,-66.5761)">
            <path d="M128.29,127.328L128.29,275.476" style="fill:none;stroke:black;stroke-width:16.55px;"/>
        </g>
        <g transform="matrix(1.20872,0,0,1.20872,-60.7406,-66.5761)">
            <path d="M128.29,127.328L128.29,275.476" style="fill:none;stroke:black;stroke-width:16.55px;"/>
        </g>
        <g transform="matrix(1,0,0,1,-28.564,-30.8973)">
            <g transform="matrix(1,0,0,1,8.56399,40.8973)">
                <path d="M236.308,282.97L343.451,282.97" style="fill:none;stroke:black;stroke-width:24px;"/>
            </g>
            <g transform="matrix(6.12323e-17,-1,1,6.12323e-17,15.4732,613.747)">
                <path d="M236.308,282.97L343.451,282.97" style="fill:none;stroke:black;stroke-width:24px;"/>
            </g>
        </g>
    </g>
</svg>
